<?xml version="1.0" standalone="no"?>
<!DOCTYPE svg PUBLIC "-//W3C//DTD SVG 20010904//EN"
 "http://www.w3.org/TR/2001/REC-SVG-20010904/DTD/svg10.dtd">
<svg version="1.0" xmlns="http://www.w3.org/2000/svg"
 width="260.000000pt" height="260.000000pt" viewBox="0 0 260.000000 260.000000"
 preserveAspectRatio="xMidYMid meet">
<metadata>
Created by potrace 1.11, written by Peter Selinger 2001-2013
</metadata>
<g transform="translate(0.000000,260.000000) scale(0.100000,-0.100000)"
fill="#000000" stroke="none">
<path d="M570 1997 c0 -68 3 -127 7 -131 4 -4 8 -15 8 -24 0 -12 10 -17 35
-19 26 -2 31 0 20 7 -9 6 -10 10 -3 10 6 0 14 -4 18 -9 8 -14 66 -11 58 3 -3
6 -3 8 2 4 4 -4 15 -2 24 5 14 10 14 10 3 -4 -10 -14 -10 -18 3 -23 9 -3 14
-2 11 3 -3 5 1 12 10 15 8 3 13 2 10 -3 -8 -13 24 -23 38 -13 6 5 26 8 43 7
18 -2 30 1 27 6 -3 5 -11 6 -17 2 -7 -4 -6 0 2 10 7 9 10 17 6 17 -4 0 -2 7 5
15 7 8 8 15 3 15 -5 0 -9 9 -9 20 0 11 4 20 9 20 5 0 4 7 -3 14 -8 11 -9 20
-2 33 7 11 7 24 1 35 -5 10 -6 18 -1 18 5 0 4 20 -2 45 l-11 45 -147 0 -148 0
0 -123z"/>
<path d="M1497 1724 c-209 -40 -366 -195 -412 -408 -30 -137 -12 -338 42 -456
9 -19 15 -37 14 -39 -2 -2 2 -7 7 -10 5 -3 17 -21 26 -39 10 -19 21 -30 28
-26 6 4 8 3 4 -4 -3 -6 -2 -13 4 -17 6 -4 8 -11 5 -16 -4 -5 1 -9 9 -9 9 0 16
-8 16 -17 0 -15 2 -16 10 -3 8 13 10 13 10 -2 0 -11 6 -16 19 -13 13 2 18 -1
15 -10 -3 -7 0 -16 7 -21 8 -5 10 -3 5 7 -4 8 2 3 13 -10 12 -13 21 -20 21
-16 0 5 9 0 20 -10 10 -9 31 -18 44 -18 14 0 23 -3 20 -8 -4 -8 34 -14 59 -10
4 0 7 -4 7 -9 0 -6 5 -10 11 -10 5 0 7 6 3 12 -4 7 2 4 14 -6 17 -14 22 -16
22 -5 0 8 3 10 8 4 11 -15 246 -10 237 5 -2 4 7 6 20 4 14 -1 25 2 25 7 0 4 6
6 13 3 7 -2 23 5 35 16 12 11 22 17 22 12 0 -5 15 -2 34 7 24 11 31 19 24 28
-7 9 -4 11 11 8 11 -2 23 1 26 6 4 5 11 7 16 4 5 -3 6 1 3 10 -4 10 -2 15 6
13 8 -2 23 11 34 29 12 18 27 32 33 33 7 0 12 6 10 13 -1 6 3 11 10 10 7 -2
10 3 7 11 -3 7 2 21 11 30 9 9 14 20 11 25 -4 5 0 15 7 23 8 7 12 19 9 27 -3
8 0 11 6 7 12 -7 26 59 16 76 -4 7 -3 8 4 4 11 -6 19 37 13 68 -1 5 4 13 11
17 10 7 10 9 -1 9 -11 0 -11 3 -1 15 10 12 10 15 -1 15 -10 0 -10 3 -1 12 13
13 17 32 5 25 -10 -6 -8 68 2 84 5 7 4 10 -2 6 -6 -4 -10 3 -10 17 0 76 -64
239 -122 311 -65 79 -175 147 -286 174 -72 18 -209 20 -288 5z m181 -262 c12
10 14 10 8 1 -4 -8 -1 -13 9 -13 10 0 13 5 9 13 -4 6 5 1 21 -13 16 -14 25
-19 21 -12 -5 8 8 3 28 -10 20 -13 36 -29 36 -37 0 -8 6 -11 17 -7 10 4 14 4
10 0 -4 -4 -1 -17 6 -28 51 -79 61 -269 19 -377 -41 -104 -124 -161 -233 -160
-135 0 -234 94 -244 233 -2 26 -6 52 -10 58 -4 6 -1 17 5 25 7 8 8 15 3 15 -5
0 -10 7 -10 15 0 8 5 15 11 15 6 0 4 5 -4 10 -8 5 -10 10 -3 10 6 0 10 11 8
25 -1 14 2 25 7 25 5 0 6 5 3 10 -3 6 -2 10 3 10 5 0 10 12 10 26 0 15 6 30
13 35 8 5 10 9 5 9 -6 0 -1 7 10 16 10 8 12 12 4 8 -8 -4 -1 6 15 22 17 16 33
29 37 29 4 0 16 7 26 16 10 9 25 16 33 17 51 5 85 14 88 24 2 6 7 4 13 -6 8
-14 12 -15 26 -4z m167 -862 c3 -5 1 -10 -4 -10 -6 0 -11 5 -11 10 0 6 2 10 4
10 3 0 8 -4 11 -10z"/>
<path d="M570 1165 c0 -369 3 -545 10 -545 7 0 7 -6 0 -19 -13 -25 -7 -28 63
-30 44 -1 56 2 51 12 -6 9 -4 9 7 1 8 -6 39 -11 70 -11 30 0 61 -3 67 -7 7 -4
12 -2 12 4 0 7 6 10 14 7 10 -4 14 0 11 12 -2 10 1 24 5 31 5 8 4 22 -1 32 -5
10 -6 18 -1 18 4 0 8 9 8 20 0 11 -3 20 -6 20 -9 0 -6 32 4 48 4 6 3 12 -1 12
-5 0 -9 9 -9 20 0 11 5 20 10 20 6 0 5 5 -2 12 -7 7 -8 17 -1 30 5 10 6 18 1
18 -10 0 -9 30 2 48 4 6 3 12 -1 12 -5 0 -9 9 -9 20 0 11 4 20 9 20 5 0 4 6
-2 14 -9 11 -9 15 1 19 10 4 10 6 1 6 -9 1 -10 8 -4 24 5 13 5 30 1 37 -5 9
-4 20 2 27 6 8 7 13 1 13 -10 0 -10 67 1 77 3 3 1 14 -5 24 -6 13 -6 19 0 19
7 0 7 9 1 25 -7 17 -6 25 1 25 8 0 8 4 1 13 -7 8 -7 18 -2 27 5 8 5 21 -1 32
-7 13 -6 18 2 18 8 0 8 4 0 14 -9 10 -9 20 -3 33 7 12 7 25 1 36 -7 11 -7 17
0 17 7 0 7 8 1 25 -7 18 -6 25 3 25 7 0 8 3 2 8 -12 8 -13 32 -2 50 5 6 4 12
-1 12 -5 0 -9 12 -9 28 1 15 0 42 -1 60 l-2 32 -150 0 -150 0 0 -545z"/>
</g>
</svg>
